# xmcd CD database file
#
# Track frame offsets:
#	150
#	35869
#	67295
#	106748
#	127765
#	149079
#	182312
#	202951
#
# Disc length: 2959 seconds
#
# Revision: 0
# Processed by: cddbd v1.5.2PL0 Copyright (c) Steve Scherf et al.
# Submitted via: CDex 1.51
#
DISCID=730b8d08
DTITLE=Mathias Eick - Jon Balke, Audun Erlien, Audun Kleive - The Door
DYEAR=2008
DGENRE=Jazz
TTITLE0=The Door
TTITLE1=Stavanger
TTITLE2=Cologne Blues
TTITLE3=October
TTITLE4=December
TTITLE5=Williamsburg
TTITLE6=Fly
TTITLE7=Porvoo
EXTD=YEAR: 2008
EXTT0=
EXTT1=
EXTT2=
EXTT3=
EXTT4=
EXTT5=
EXTT6=
EXTT7=
PLAYORDER=
